# xmcd CD database file
#
# Track frame offsets:
#	150
#	13303
#	26965
#	42459
#	57604
#	73836
#	88299
#	104586
#	121469
#	138859
#	161155
#
# Disc length: 2369 seconds
#
# Revision: 0
# Processed by: cddbd v1.5.2PL0 Copyright (c) Steve Scherf et al.
# Submitted via: CDex 1.51
#
DISCID=ad093f0b
DTITLE=Ania D¹browska - Kilka S³ów Na Ten Sam Temat
DYEAR=2006
DGENRE=Merengue
TTITLE0=Track Artist - Track 1
TTITLE1=Track Artist - Track 2
TTITLE2=Track Artist - Track 3
TTITLE3=Track Artist - Track 4
TTITLE4=Track Artist - Track 5
TTITLE5=Track Artist - Track 6
TTITLE6=Track Artist - Track 7
TTITLE7=Track Artist - Track 8
TTITLE8=Track Artist - Track 9
TTITLE9=Track Artist - Track 10
TTITLE10=Track Artist - Track 11
EXTD=YEAR: 2006
EXTT0=
EXTT1=
EXTT2=
EXTT3=
EXTT4=
EXTT5=
EXTT6=
EXTT7=
EXTT8=
EXTT9=
EXTT10=
PLAYORDER=
